<?xml version="1.0" encoding="utf-8"?>
<!-- Generator: Adobe Illustrator 24.3.0, SVG Export Plug-In . SVG Version: 6.00 Build 0)  -->
<svg version="1.1" id="Layer_1" xmlns="http://www.w3.org/2000/svg" xmlns:xlink="http://www.w3.org/1999/xlink" x="0px" y="0px"
	 viewBox="0 0 2000 970.7" style="enable-background:new 0 0 2000 970.7;" xml:space="preserve">
<style type="text/css">
	.st0{fill:#7CB342;}
	.st1{fill-rule:evenodd;clip-rule:evenodd;fill:#7CB342;}
	.st2{fill-rule:evenodd;clip-rule:evenodd;fill:#545554;}
	.st3{fill:#545554;}
</style>
<g>
	<path class="st0" d="M1881,390c-5.9-37.4-22.5-67.5-49.6-90.4c-27.1-22.8-59.7-34.3-97.8-34.3c-38.7,0-71.8,11.4-99.2,34.2
		c-27.4,22.8-43.8,53-49.1,90.5h-259.2h-21.4h-129.1h-16.9H609.1v41h203.3c58.6,38,87.9,88.5,87.9,151.4
		c0,42.8-13.6,80.2-40.8,112.2c-28.4,34.4-63.6,51.7-105.6,51.7c-39.1,0-76.9-16.3-113.6-49l44.5,102.4c23.2,7.1,46,10.7,68.6,10.7
		c60.6,0,110.5-22.9,149.6-68.6c38-43.3,57-95.6,57-156.8c0-56.4-17.8-107.8-53.4-154.1h137.2v386.6h61.5V431h53.4h16.9h19.6v388.3
		h61.4V431h48.1h21.4h342v78.4h-193.3c-38.6,0-71.4,13.5-98.4,40.5s-40.5,59.8-40.5,98.4c0,37.4,13.5,69.9,40.5,97.5
		s59.2,41.4,96.7,41.4c38,0,71.1-13.7,99.3-41c28.2-27.3,42.3-60,42.3-98c0-26.1-7.4-51.3-22.3-75.7h-73.9
		c28.5,16.6,42.8,41,42.8,73c0,24.9-8.2,45.9-24.5,62.8c-16.3,16.9-37,25.4-61.9,25.4s-45.3-8.2-61-24.5s-23.6-37-23.6-61.9
		s7.9-45.7,23.6-62.3s36.1-24.9,61-24.9h193.3v258.3h61.5V431h33h39.2h17.8v386.6h61.4V431h74.8v-41H1881L1881,390z M1801.8,390
		h-39.2H1642c5.5-21.1,16.2-38.1,32.4-50.8c16.6-13,36.2-19.6,58.8-19.6c22,0,41.3,6.4,57.9,19.2c16.6,12.8,27.6,29.8,32.9,51.2
		L1801.8,390L1801.8,390z"/>
	<g>
		<path class="st1" d="M194.2,306.4l-25.3,41.1c47.1-7.4,85.5-1.1,115,19.1C262.5,338.2,232.6,318.1,194.2,306.4L194.2,306.4z"/>
	</g>
	<path class="st2" d="M173.4,284.9c54.8,7.3,97.4,34.2,127.6,80.6c-7.6-46.8-31.3-84.1-71.4-111.9L173.4,284.9z"/>
	<path class="st1" d="M201.1,208c74.8,48.1,115.2,114.3,121.5,198.5c12.5-66.4-6.1-125.9-55.9-178.6c41.6-11.9,73.7-40.1,96.2-84.6
		c74.2,129,50.6,232-70.9,309.2c153.9-53.2,177-215.4,69.4-359.6C337.5,173,284,211.4,201.1,208L201.1,208z"/>
	<g>
		<path class="st2" d="M385.5,75c128.2,161.8,87.4,345.2-97.9,406c194.3-11.2,310.8-135,349.5-371.4C586,178.7,502.1,167.1,385.5,75
			z"/>
	</g>
	<g>
		<path class="st2" d="M545.8,114.8c25.8,0,46.9-21,46.9-46.8s-21-46.8-46.9-46.8c-25.8,0-46.9,21-46.9,46.8
			S519.9,114.8,545.8,114.8z"/>
	</g>
	<g>
		<g transform="translate(117.090216, 255.208313)">
			<g>
				<path class="st3" d="M24,136.9v340.2h146.4v85.2H-72.9V136.9H24z"/>
			</g>
		</g>
	</g>
	<g>
		<g transform="translate(139.162612, 255.208313)">
			<g>
				<path class="st3" d="M204,529.7c-24.7-27.1-37-60.1-37-99.3s12.3-72.5,37-99.7c24.8-27.2,56.3-40.8,94.5-40.8
					c35,0,63.9,11,86.6,33v-25.3h91.3v264.6H386v-29.8h-1c-22.7,25.1-51.5,37.6-86.5,37.6C260.3,570.1,228.7,556.7,204,529.7z
					 M281.6,385.5c-11.8,11.7-17.7,26.7-17.7,45c0,18.2,5.6,33,16.9,44.6c11.4,11.4,26.4,17.1,45,17.1c17.9,0,32.5-5.8,44-17.5
					c11.5-11.6,17.3-26.5,17.3-44.4c0-18.2-5.9-33.1-17.7-44.8C357.6,373.9,343,368,325.8,368C308.2,367.9,293.5,373.8,281.6,385.5z
					"/>
			</g>
		</g>
	</g>
	<g>
		<path class="st0" d="M369.9,203.3l-30,18.3c1.9,0.7,4.2,2.6,7,5.6c1.2-2.2,3-3.9,5.2-5.2c4.1-2.5,8.5-3.1,13-1.7
			c4.6,1.4,8.1,4.2,10.7,8.4s3.5,8.6,2.9,13.2c-0.6,5-3,8.7-7.2,11.3c-1.4,0.9-3,1.5-4.8,2l-4.2-6.9c1.9-0.2,3.6-0.7,5-1.5
			c2.4-1.5,3.8-3.6,4.2-6.4c0.4-2.8-0.1-5.4-1.6-7.8c-1.5-2.4-3.6-4.1-6.3-4.9c-2.7-0.8-5.3-0.5-7.7,1c-2.5,1.6-4.1,3.5-4.7,5.8
			c3,8.1,1.3,15.5-5.3,22.2l28.7,3.8l-10,6.2l-42.1-5.5l1.9-7.5l7.2,1c2.6,0.1,4.9-0.4,6.9-1.6c3.3-2,5.4-4.8,6.2-8.3
			c0.8-3.5,0.2-6.9-1.9-10.2c-2.9-4.8-7-7.1-12.4-7l-23.7,14.5l-2.8-4.6l63.1-38.6L369.9,203.3z"/>
	</g>
	<g>
		<g>
			<g transform="translate(103.352182, 282.751327)">
				<g>
					<path class="st0" d="M-59.2,590h22c10.5,0,19.5,3.6,26.9,10.8c7.5,7.1,11.3,16.1,11.3,27c0,10.9-3.7,19.9-11.1,27.1
						c-7.5,7.2-16.5,10.8-27.1,10.8h-22V590z M-41.9,650.2h2.6c6.3,0,11.4-2.1,15.4-6.3s6-9.5,6.2-16c0-6.5-2-11.9-6-16.1
						c-4-4.2-9.2-6.3-15.6-6.3h-2.6V650.2z"/>
				</g>
			</g>
		</g>
	</g>
	<g>
		<g>
			<g transform="translate(114.318616, 282.751327)">
				<g>
					<path class="st0" d="M67.6,635.3v30.4H50.2V590h17.3v30.2H92V590h17.3v75.7H91.9v-30.4H67.6z"/>
				</g>
			</g>
		</g>
	</g>
	<g>
		<g>
			<g transform="translate(125.485498, 282.751327)">
				<g>
					<path class="st0" d="M205.1,590v15.1H179v15.1h24.9v15.1H179v15.3h26.1v15.1h-43.4V590H205.1L205.1,590z"/>
				</g>
			</g>
		</g>
	</g>
	<g>
		<g>
			<g transform="translate(135.132282, 282.751327)">
				<g>
					<path class="st0" d="M316.2,665.7L304,623.1l-12,42.6h-19.2L251.1,590h19.2l12.9,51.8h0.5l13.7-51.8h13l13.7,51.8h0.5
						l12.9-51.8h19.2l-21.6,75.7H316.2z"/>
				</g>
			</g>
		</g>
	</g>
	<g>
		<g>
			<g transform="translate(149.297612, 282.751327)">
				<g>
					<path class="st0" d="M437.8,590l30.5,75.7h-18.5l-5.5-15.1h-28.8l-5.7,15.1h-18.5l30.5-75.7H437.8z M438.4,635.3l-8.4-22h-0.2
						l-8.4,22H438.4z"/>
				</g>
			</g>
		</g>
	</g>
	<path class="st3" d="M897.9,873.1c2.1-2.6,4.4-4.3,7-4.8c-4.2-2.4-8.4-6.1-12.5-11.1c-4.9-5.8-8.3-9.5-10.3-11.1
		c-4.4-3.5-9.9-5.7-16.5-6.5l-7.8,6.8c8,0.7,14.2,2.8,18.5,6.2c2,1.6,5,5.1,9,10.6c3.2,4.3,6.8,7.5,10.6,9.8h-2.7H777.6v7.3h52.5
		v36.3c0,5-1.7,9-5,12.1s-7.5,4.7-12.5,4.7c-5.2,0-9.5-1.7-12.9-5s-5.1-7.6-5.1-12.8c0-5,1.8-9.2,5.3-12.8c3.5-3.5,7.8-5.3,12.8-5.3
		c5.4,0,9.9,2.2,13.4,6.5v-13.8c-4.5-2.5-9.2-3.8-14-3.8c-7.8,0-14.5,3-19.9,8.9c-5.5,6-8.2,12.9-8.2,20.7s2.8,14.5,8.4,20
		c5.6,5.5,12.3,8.3,20.1,8.3c6.5,0,12.4-2.1,17.6-6.3v11.1H841v-36.4c0-4.1,2-7.7,5.9-10.8c3.6-3,7.5-4.4,11.7-4.4
		c4.8,0,8.9,1.8,12.5,5.3s5.4,7.6,5.4,12.3c0,4.8-1.8,9.1-5.5,12.8s-7.9,5.6-12.8,5.6c-4.4,0-8.4-1.6-11.9-4.9v12.7
		c4.1,2.1,8.3,3.1,12.7,3.1c7.8,0,14.5-3,19.9-9s8.2-12.9,8.2-20.8s-2.8-14.5-8.4-20c-5.6-5.5-12.3-8.2-20.1-8.2
		c-6.5,0-12.4,2.1-17.6,6.3v-12.5h52.3h3.3h3.2v69.1h10.9v-69.1h12.4v-7.3L897.9,873.1L897.9,873.1z"/>
	<g>
		<g transform="translate(198.316628, 282.751327)">
			<g>
				<path class="st3" d="M953.7,665.3h-23.8l-27.8-32.1v32.1h-17.3v-75.7h17.3v30.9l25.9-30.9h20.9l-30.5,35.9L953.7,665.3z"/>
			</g>
		</g>
	</g>
	<g>
		<g transform="translate(209.692312, 282.751327)">
			<g>
				<path class="st3" d="M1036.7,589.6l30.5,75.7h-18.5l-5.5-15.1h-28.8l-5.7,15.1h-18.5l30.5-75.7H1036.7z M1037.2,634.9l-8.4-22
					h-0.2l-8.4,22H1037.2z"/>
			</g>
		</g>
	</g>
	<g>
		<g transform="translate(221.042944, 282.751327)">
			<g>
				<path class="st3" d="M1111.6,589.6h27.1c7.3,0,13.3,2,17.8,5.8c4.6,3.9,6.9,9.4,6.9,16.6c0,5.5-1.5,10.1-4.3,13.9
					c-2.8,3.8-6.5,6.5-11.3,8.1l26.1,31.2h-21.8l-23.2-29.9v29.9h-17.3L1111.6,589.6L1111.6,589.6z M1128.9,623.1h1.9
					c1.6,0,3,0,4.1,0c1.1-0.1,2.4-0.3,3.8-0.7c1.4-0.3,2.4-0.9,3.3-1.5c0.9-0.7,1.6-1.6,2.2-2.9c0.7-1.2,1-2.8,1-4.6s-0.3-3.3-1-4.6
					c-0.6-1.4-1.3-2.4-2.2-3.1c-0.8-0.7-1.9-1.2-3.3-1.5s-2.7-0.5-3.8-0.5c-1.2-0.1-2.5-0.2-4.1-0.2h-1.9V623.1z"/>
			</g>
		</g>
	</g>
	<g>
		<g transform="translate(231.825621, 282.751327)">
			<g>
				<path class="st3" d="M1215.8,627.3c0-11,3.7-20.2,11.2-27.8c7.6-7.6,16.6-11.3,27.1-11.3s19.5,3.8,26.9,11.3
					c7.4,7.6,11.2,16.8,11.2,27.8c0,11.1-3.7,20.4-11,28c-7.2,7.6-16.3,11.3-27.1,11.3c-11.1,0-20.2-3.7-27.4-11.2
					C1219.4,647.9,1215.8,638.6,1215.8,627.3z M1234.5,627.3c0,4,0.6,7.7,1.7,11c1.2,3.2,3.4,6,6.5,8.2c3.1,2.3,6.9,3.4,11.3,3.4
					c6.4,0,11.2-2.1,14.4-6.5c3.3-4.5,5-9.8,5-16.1c0-6.2-1.7-11.5-5-16s-8.2-6.7-14.4-6.7c-6.3,0-11.2,2.2-14.6,6.7
					C1236.1,615.8,1234.5,621.2,1234.5,627.3z"/>
			</g>
		</g>
	</g>
	<g>
		<g transform="translate(243.953012, 282.751327)">
			<g>
				<path class="st3" d="M1340.3,589.6h23.5c7.1,0,12.7,1.5,17,4.6c4.2,3,6.3,7.8,6.3,14.6c0,7.6-3.2,13-9.4,16.3
					c10.7,1.8,16.1,8.2,16.1,19.1c0,6.4-2.2,11.6-6.7,15.4c-4.4,3.8-10.4,5.7-18,5.7h-28.8V589.6L1340.3,589.6z M1357.6,619.1h1.4
					c3.8,0,6.6-0.6,8.6-1.9c1.9-1.4,2.9-3.6,2.9-6.7c0-5.2-3.9-7.7-11.5-7.7h-1.4V619.1z M1357.6,651.9h5.3c8.4,0,12.7-2.8,12.7-8.4
					c0-3.3-1.1-5.7-3.3-7.2c-2.1-1.5-5.2-2.2-9.4-2.2h-5.3L1357.6,651.9L1357.6,651.9z"/>
			</g>
		</g>
	</g>
	<g>
		<g transform="translate(254.318077, 282.751327)">
			<g>
				<path class="st3" d="M1482.2,589.6l30.5,75.7h-18.5l-5.5-15.1h-28.8l-5.7,15.1h-18.5l30.5-75.7H1482.2z M1482.7,634.9l-8.4-22
					h-0.2l-8.4,22H1482.7z"/>
			</g>
		</g>
	</g>
	<g>
		<g transform="translate(265.668708, 282.751327)">
			<g>
				<path class="st3" d="M1557,589.6h27.1c7.3,0,13.3,2,17.8,5.8c4.6,3.9,6.9,9.4,6.9,16.6c0,5.5-1.5,10.1-4.3,13.9
					c-2.8,3.8-6.5,6.5-11.3,8.1l26.1,31.2h-21.8l-23.2-29.9v29.9H1557V589.6L1557,589.6z M1574.3,623.1h1.9c1.6,0,3,0,4.1,0
					c1.1-0.1,2.4-0.3,3.8-0.7c1.4-0.3,2.4-0.9,3.3-1.5c0.9-0.7,1.6-1.6,2.2-2.9c0.7-1.2,1-2.8,1-4.6s-0.3-3.3-1-4.6
					c-0.6-1.4-1.3-2.4-2.2-3.1c-0.8-0.7-1.9-1.2-3.3-1.5s-2.7-0.5-3.8-0.5c-1.2-0.1-2.5-0.2-4.1-0.2h-1.9V623.1z"/>
			</g>
		</g>
	</g>
</g>
</svg>
