<?xml version="1.0" encoding="utf-8"?>
<!-- Generator: Adobe Illustrator 24.3.0, SVG Export Plug-In . SVG Version: 6.00 Build 0)  -->
<svg version="1.1" id="Layer_1" xmlns="http://www.w3.org/2000/svg" xmlns:xlink="http://www.w3.org/1999/xlink" x="0px" y="0px"
	 viewBox="0 0 2000 2000" style="enable-background:new 0 0 2000 2000;" xml:space="preserve">
<style type="text/css">
	.st0{fill:#389A52;}
	.st1{fill-rule:evenodd;clip-rule:evenodd;fill:#389A52;}
	.st2{fill-rule:evenodd;clip-rule:evenodd;fill:#545554;}
	.st3{fill:#545554;}
</style>
<g>
	<path class="st0" d="M1881.04,904.71c-5.95-37.41-22.49-67.55-49.58-90.41c-27.11-22.85-59.71-34.3-97.83-34.3
		c-38.7,0-71.75,11.43-99.15,34.25c-27.39,22.84-43.77,52.99-49.14,90.45h-259.19h-21.39h-129.14h-16.93H609.13v40.97h203.35
		c58.61,38.01,87.91,88.48,87.91,151.41c0,42.75-13.61,80.16-40.83,112.23c-28.41,34.44-63.62,51.66-105.63,51.66
		c-39.07,0-76.93-16.33-113.62-48.99l44.54,102.44c23.16,7.13,46.01,10.69,68.58,10.69c60.57,0,110.45-22.86,149.64-68.59
		c38-43.33,57.01-95.59,57.01-156.76c0-56.41-17.81-107.78-53.44-154.09h137.17v386.56h61.46V945.68h53.44h16.93h19.59v388.34h61.45
		V945.68h48.09h21.39h342.02v78.37h-193.28c-38.6,0-71.41,13.51-98.43,40.53c-27.02,27.02-40.53,59.82-40.53,98.42
		c0,37.41,13.51,69.92,40.53,97.53c27.02,27.61,59.24,41.42,96.65,41.42c38,0,71.1-13.65,99.31-40.97
		c28.2-27.31,42.31-59.97,42.31-97.98c0-26.12-7.43-51.35-22.26-75.71h-73.93c28.5,16.63,42.75,40.97,42.75,73.03
		c0,24.94-8.17,45.88-24.49,62.8c-16.34,16.93-36.96,25.39-61.9,25.39c-24.94,0-45.29-8.16-61.02-24.49
		c-15.73-16.33-23.6-36.97-23.6-61.91c0-24.93,7.86-45.71,23.6-62.34c15.73-16.62,36.08-24.94,61.02-24.94h193.28v258.3h61.46
		V945.68h32.96h39.19h17.81v386.56h61.45V945.68h74.82v-40.97H1881.04z M1801.77,904.71h-39.19h-120.56
		c5.5-21.09,16.24-38.08,32.38-50.78c16.63-13.05,36.23-19.6,58.79-19.6c21.97,0,41.27,6.39,57.89,19.16
		c16.62,12.77,27.61,29.84,32.95,51.21H1801.77z"/>
	<g>
		<path class="st1" d="M194.23,821.05l-25.29,41.09c47.14-7.43,85.5-1.07,114.98,19.12c-21.43-28.38-51.34-48.47-89.72-60.21H194.23
			z"/>
	</g>
	<path class="st2" d="M173.41,799.53c54.81,7.35,97.38,34.21,127.64,80.56c-7.56-46.81-31.33-84.06-71.36-111.88L173.41,799.53z"/>
	<path class="st1" d="M201.15,722.62c74.75,48.1,115.25,114.29,121.51,198.51c12.49-66.42-6.15-125.94-55.85-178.58
		c41.65-11.93,73.74-40.13,96.23-84.6c74.23,128.95,50.57,232-70.95,309.17c153.91-53.2,177.04-215.39,69.35-359.62
		c-23.99,80.13-77.4,118.52-160.26,115.12H201.15z"/>
	<g>
		<path class="st2" d="M385.51,589.63c128.2,161.85,87.43,345.18-97.88,406c194.3-11.21,310.77-135.02,349.51-371.44
			C586.03,693.32,502.13,681.81,385.51,589.63z"/>
	</g>
	<g>
		<path class="st2" d="M545.75,629.45c25.84,0,46.91-21,46.91-46.79c0-25.77-21.05-46.81-46.91-46.81c-25.82,0-46.9,21-46.9,46.81
			C498.85,608.42,519.93,629.45,545.75,629.45z"/>
	</g>
	<g>
		<g transform="translate(117.090216, 255.208313)">
			<g>
				<path class="st3" d="M23.95,651.6v340.25h146.44v85.16H-72.95V651.6H23.95z"/>
			</g>
		</g>
	</g>
	<g>
		<g transform="translate(139.162612, 255.208313)">
			<g>
				<path class="st3" d="M203.96,1044.38c-24.67-27.06-37.01-60.14-37.01-99.29c0-39.25,12.34-72.48,37.01-99.69
					c24.77-27.16,56.31-40.79,94.51-40.79c35.02,0,63.87,11.04,86.55,33.03v-25.27h91.33v264.64h-90.33v-29.85h-0.99
					c-22.68,25.07-51.53,37.61-86.55,37.61C260.27,1084.77,228.73,1071.34,203.96,1044.38z M281.56,900.12
					c-11.84,11.69-17.71,26.66-17.71,44.97c0,18.21,5.62,33.03,16.91,44.57c11.39,11.44,26.36,17.11,44.97,17.11
					c17.91,0,32.53-5.82,43.97-17.51c11.54-11.64,17.31-26.46,17.31-44.37c0-18.16-5.92-33.08-17.71-44.77
					c-11.84-11.64-26.36-17.51-43.58-17.51C308.22,882.61,293.5,888.48,281.56,900.12z"/>
			</g>
		</g>
	</g>
	<g>
		<path class="st0" d="M369.89,717.94l-29.95,18.34c1.88,0.68,4.23,2.56,7.02,5.62c1.25-2.15,2.99-3.89,5.2-5.24
			c4.14-2.53,8.49-3.12,13.05-1.73c4.57,1.39,8.13,4.18,10.71,8.38c2.57,4.21,3.53,8.63,2.88,13.25c-0.63,4.97-3.02,8.73-7.16,11.27
			c-1.4,0.86-3.01,1.52-4.83,1.99l-4.23-6.91c1.92-0.16,3.58-0.67,4.99-1.53c2.4-1.47,3.81-3.6,4.21-6.4
			c0.41-2.79-0.14-5.4-1.64-7.85c-1.49-2.43-3.6-4.07-6.31-4.91c-2.71-0.84-5.28-0.51-7.69,0.96c-2.54,1.56-4.11,3.47-4.73,5.77
			c3.03,8.11,1.26,15.49-5.31,22.17l28.67,3.75l-10.04,6.15l-42.07-5.49l1.87-7.46l7.18,1.05c2.65,0.14,4.94-0.38,6.87-1.57
			c3.34-2.04,5.41-4.79,6.22-8.28c0.8-3.47,0.19-6.88-1.86-10.22c-2.9-4.75-7.04-7.07-12.41-7l-23.74,14.54l-2.83-4.61l63.11-38.64
			L369.89,717.94z"/>
	</g>
	<g>
		<g>
			<g transform="translate(103.352182, 282.751327)">
				<g>
					<path class="st0" d="M-59.21,1104.68h21.96c10.51,0,19.48,3.6,26.94,10.81c7.55,7.12,11.32,16.09,11.32,26.94
						c0,10.9-3.73,19.9-11.15,27.11c-7.46,7.21-16.47,10.81-27.11,10.81h-21.96V1104.68z M-41.88,1164.91h2.57
						c6.26,0,11.41-2.1,15.44-6.35c3.99-4.2,6.05-9.52,6.18-15.96c0-6.52-2.02-11.88-6.01-16.13c-4.03-4.2-9.22-6.35-15.61-6.35
						h-2.57V1164.91z"/>
				</g>
			</g>
		</g>
	</g>
	<g>
		<g>
			<g transform="translate(114.318616, 282.751327)">
				<g>
					<path class="st0" d="M67.58,1149.98v30.37H50.25v-75.67h17.33v30.2h24.37v-30.2h17.33v75.67H91.95v-30.37H67.58z"/>
				</g>
			</g>
		</g>
	</g>
	<g>
		<g>
			<g transform="translate(125.485498, 282.751327)">
				<g>
					<path class="st0" d="M205.12,1104.68v15.1h-26.08v15.1h24.88v15.1h-24.88v15.27h26.08v15.1h-43.41v-75.67H205.12z"/>
				</g>
			</g>
		</g>
	</g>
	<g>
		<g>
			<g transform="translate(135.132282, 282.751327)">
				<g>
					<path class="st0" d="M316.17,1180.35l-12.18-42.55l-12.01,42.55h-19.22l-21.62-75.67h19.22l12.87,51.82h0.51l13.73-51.82h13.04
						l13.73,51.82h0.51l12.87-51.82h19.22l-21.62,75.67H316.17z"/>
				</g>
			</g>
		</g>
	</g>
	<g>
		<g>
			<g transform="translate(149.297612, 282.751327)">
				<g>
					<path class="st0" d="M437.83,1104.68l30.54,75.67h-18.53l-5.49-15.1h-28.83l-5.66,15.1h-18.53l30.54-75.67H437.83z
						 M438.35,1149.98l-8.41-21.96h-0.17l-8.41,21.96H438.35z"/>
				</g>
			</g>
		</g>
	</g>
	<path class="st3" d="M897.88,1387.8c2.06-2.59,4.36-4.28,7.01-4.75c-4.23-2.43-8.4-6.12-12.53-11.09
		c-4.86-5.81-8.3-9.5-10.31-11.08c-4.44-3.49-9.93-5.65-16.49-6.5l-7.77,6.81c8.04,0.74,14.21,2.8,18.55,6.17
		c2.01,1.59,5.02,5.13,9.03,10.61c3.17,4.32,6.75,7.51,10.62,9.82h-2.69H777.59v7.28h52.47v36.28c0,4.96-1.67,9.01-5.01,12.12
		c-3.34,3.12-7.51,4.67-12.5,4.67c-5.2,0-9.5-1.66-12.9-4.99c-3.4-3.33-5.1-7.57-5.1-12.75c0-4.96,1.75-9.21,5.26-12.75
		c3.5-3.54,7.76-5.31,12.75-5.31c5.41,0,9.87,2.16,13.38,6.49v-13.78c-4.54-2.53-9.19-3.8-13.95-3.8c-7.83,0-14.45,2.98-19.89,8.95
		c-5.45,5.97-8.17,12.86-8.17,20.67c0,7.82,2.8,14.49,8.4,20.04c5.6,5.54,12.31,8.31,20.13,8.31c6.55,0,12.42-2.11,17.6-6.34v11.09
		h10.94v-36.43c0-4.12,1.95-7.71,5.87-10.77c3.59-2.96,7.5-4.43,11.73-4.43c4.76,0,8.93,1.75,12.53,5.26
		c3.59,3.51,5.39,7.62,5.39,12.33c0,4.81-1.82,9.08-5.47,12.8c-3.65,3.72-7.9,5.57-12.76,5.57c-4.44,0-8.4-1.64-11.89-4.91v12.74
		c4.12,2.07,8.35,3.11,12.68,3.11c7.82,0,14.45-3.01,19.9-9.03c5.44-6.02,8.16-12.94,8.16-20.75c0-7.81-2.8-14.47-8.4-19.96
		c-5.61-5.49-12.32-8.24-20.14-8.24c-6.55,0-12.42,2.11-17.6,6.34v-12.52h52.31h3.33h3.17v69.07h10.94v-69.07h12.37v-7.28H897.88z"
		/>
	<g>
		<g transform="translate(198.316628, 282.751327)">
			<g>
				<path class="st3" d="M953.71,1179.93h-23.85l-27.8-32.09v32.09h-17.33v-75.67h17.33v30.89l25.91-30.89h20.93l-30.54,35.86
					L953.71,1179.93z"/>
			</g>
		</g>
	</g>
	<g>
		<g transform="translate(209.692312, 282.751327)">
			<g>
				<path class="st3" d="M1036.72,1104.26l30.54,75.67h-18.53l-5.49-15.1h-28.83l-5.66,15.1h-18.53l30.54-75.67H1036.72z
					 M1037.23,1149.56l-8.41-21.96h-0.17l-8.41,21.96H1037.23z"/>
			</g>
		</g>
	</g>
	<g>
		<g transform="translate(221.042944, 282.751327)">
			<g>
				<path class="st3" d="M1111.58,1104.26h27.11c7.29,0,13.26,1.97,17.85,5.83c4.55,3.9,6.86,9.44,6.86,16.64
					c0,5.49-1.46,10.12-4.29,13.9c-2.75,3.77-6.52,6.48-11.32,8.06l26.08,31.23h-21.79l-23.16-29.86v29.86h-17.33V1104.26z
					 M1128.91,1137.72h1.89c1.59,0,2.96,0,4.12,0c1.12-0.09,2.4-0.34,3.77-0.69c1.37-0.34,2.45-0.86,3.26-1.54
					c0.9-0.69,1.63-1.63,2.23-2.92c0.69-1.24,1.03-2.79,1.03-4.63c0-1.8-0.34-3.35-1.03-4.63c-0.6-1.37-1.33-2.4-2.23-3.09
					c-0.82-0.69-1.89-1.2-3.26-1.54s-2.66-0.51-3.77-0.51c-1.16-0.09-2.53-0.17-4.12-0.17h-1.89V1137.72z"/>
			</g>
		</g>
	</g>
	<g>
		<g transform="translate(231.825621, 282.751327)">
			<g>
				<path class="st3" d="M1215.78,1142.01c0-10.98,3.69-20.25,11.15-27.8c7.55-7.55,16.56-11.32,27.11-11.32
					c10.51,0,19.48,3.77,26.94,11.32c7.42,7.55,11.15,16.82,11.15,27.8c0,11.11-3.69,20.42-10.98,27.97
					c-7.21,7.55-16.26,11.32-27.11,11.32c-11.11,0-20.25-3.69-27.45-11.15C1219.38,1162.6,1215.78,1153.25,1215.78,1142.01z
					 M1234.48,1142.01c0,4.03,0.56,7.68,1.72,10.98c1.24,3.22,3.43,5.96,6.52,8.24c3.09,2.32,6.86,3.43,11.32,3.43
					c6.39,0,11.2-2.14,14.41-6.52c3.3-4.46,4.98-9.82,4.98-16.13c0-6.18-1.67-11.5-4.98-15.96c-3.35-4.46-8.15-6.69-14.41-6.69
					c-6.31,0-11.15,2.23-14.58,6.69C1236.11,1130.51,1234.48,1135.83,1234.48,1142.01z"/>
			</g>
		</g>
	</g>
	<g>
		<g transform="translate(243.953012, 282.751327)">
			<g>
				<path class="st3" d="M1340.26,1104.26h23.51c7.08,0,12.74,1.54,16.99,4.63c4.2,3,6.35,7.85,6.35,14.58c0,7.55-3.17,13-9.44,16.3
					c10.72,1.84,16.13,8.19,16.13,19.05c0,6.43-2.23,11.58-6.69,15.44c-4.38,3.77-10.38,5.66-18.02,5.66h-28.83V1104.26z
					 M1357.59,1133.77h1.37c3.77,0,6.61-0.6,8.58-1.89c1.93-1.37,2.92-3.6,2.92-6.69c0-5.15-3.86-7.72-11.5-7.72h-1.37V1133.77z
					 M1357.59,1166.55h5.32c8.45,0,12.7-2.79,12.7-8.41c0-3.3-1.12-5.71-3.26-7.21c-2.06-1.46-5.23-2.23-9.44-2.23h-5.32V1166.55z"
					/>
			</g>
		</g>
	</g>
	<g>
		<g transform="translate(254.318077, 282.751327)">
			<g>
				<path class="st3" d="M1482.15,1104.26l30.54,75.67h-18.53l-5.49-15.1h-28.83l-5.66,15.1h-18.53l30.54-75.67H1482.15z
					 M1482.67,1149.56l-8.41-21.96h-0.17l-8.41,21.96H1482.67z"/>
			</g>
		</g>
	</g>
	<g>
		<g transform="translate(265.668708, 282.751327)">
			<g>
				<path class="st3" d="M1557.02,1104.26h27.11c7.29,0,13.26,1.97,17.85,5.83c4.55,3.9,6.86,9.44,6.86,16.64
					c0,5.49-1.46,10.12-4.29,13.9c-2.75,3.77-6.52,6.48-11.32,8.06l26.08,31.23h-21.79l-23.16-29.86v29.86h-17.33V1104.26z
					 M1574.35,1137.72h1.89c1.59,0,2.96,0,4.12,0c1.12-0.09,2.4-0.34,3.77-0.69c1.37-0.34,2.45-0.86,3.26-1.54
					c0.9-0.69,1.63-1.63,2.23-2.92c0.69-1.24,1.03-2.79,1.03-4.63c0-1.8-0.34-3.35-1.03-4.63c-0.6-1.37-1.33-2.4-2.23-3.09
					c-0.82-0.69-1.89-1.2-3.26-1.54c-1.37-0.34-2.66-0.51-3.77-0.51c-1.16-0.09-2.53-0.17-4.12-0.17h-1.89V1137.72z"/>
			</g>
		</g>
	</g>
</g>
</svg>
